<svg width="97" height="29" viewBox="0 0 97 29" fill="none" xmlns="http://www.w3.org/2000/svg">
<path d="M11.7773 6.85547C11.6836 6.97266 11.1094 6.98437 10.0547 6.89062C9 6.79688 7.33594 6.64453 5.0625 6.43359C5.0625 7.20703 5.0625 8.15625 5.0625 9.28125C5.08594 10.4062 5.08594 11.6133 5.0625 12.9023C6.82031 13.0664 8.19141 13.2188 9.17578 13.3594C10.1602 13.5 10.6758 13.5938 10.7227 13.6406C10.8164 13.7344 10.8516 13.9336 10.8281 14.2383C10.8047 14.5195 10.7461 14.8359 10.6523 15.1875C10.5586 15.5391 10.4414 15.8789 10.3008 16.207C10.1602 16.5117 10.0195 16.7109 9.87891 16.8047C9.76172 16.8516 9.29297 16.9219 8.47266 17.0156C7.67578 17.0859 6.53906 17.1562 5.0625 17.2266C5.0625 18.2344 5.05078 19.2305 5.02734 20.2148C5.02734 21.1992 5.01562 22.1016 4.99219 22.9219C7.26562 22.9453 8.91797 22.9922 9.94922 23.0625C11.0039 23.1094 11.5781 23.1797 11.6719 23.2734C11.7656 23.3906 11.7656 23.6133 11.6719 23.9414C11.6016 24.2695 11.4727 24.6211 11.2852 24.9961C11.1211 25.3477 10.9336 25.6992 10.7227 26.0508C10.5352 26.4023 10.3828 26.6484 10.2656 26.7891C10.2188 26.8359 9.9375 26.8594 9.42188 26.8594C8.90625 26.8359 8.33203 26.8008 7.69922 26.7539C7.06641 26.707 6.45703 26.6602 5.87109 26.6133C5.28516 26.543 4.89844 26.4844 4.71094 26.4375C4.35938 26.3203 3.98438 26.1328 3.58594 25.875C3.1875 25.5938 2.87109 25.2422 2.63672 24.8203C2.58984 24.7031 2.50781 24.3164 2.39062 23.6602C2.29688 22.9805 2.19141 22.125 2.07422 21.0938C1.95703 20.0625 1.83984 18.9023 1.72266 17.6133C1.60547 16.3242 1.48828 15.0117 1.37109 13.6758C1.25391 12.3398 1.14844 11.0273 1.05469 9.73828C0.960938 8.44922 0.878906 7.28906 0.808594 6.25781C0.761719 5.20312 0.738281 4.33594 0.738281 3.65625C0.738281 2.95312 0.773438 2.53125 0.84375 2.39062C0.914062 2.20312 1.24219 2.0625 1.82812 1.96875C2.41406 1.875 3.11719 1.81641 3.9375 1.79297C4.75781 1.74609 5.63672 1.73438 6.57422 1.75781C7.53516 1.78125 8.42578 1.82812 9.24609 1.89844C10.0664 1.94531 10.7578 2.01563 11.3203 2.10938C11.8828 2.17969 12.1992 2.25 12.2695 2.32031C12.3633 2.4375 12.4102 2.70703 12.4102 3.12891C12.4336 3.55078 12.4102 4.01953 12.3398 4.53516C12.293 5.02734 12.2109 5.50781 12.0938 5.97656C12 6.42187 11.8945 6.71484 11.7773 6.85547ZM27.2109 18.1348C27.2552 18.2012 27.2441 18.4225 27.1777 18.7988C27.1335 19.1751 27.056 19.5846 26.9453 20.0273C26.8568 20.4701 26.7572 20.8906 26.6465 21.2891C26.5579 21.6654 26.4805 21.8867 26.4141 21.9531H26.082C26.0156 21.9531 25.9492 21.9421 25.8828 21.9199C25.9935 22.9824 26.082 23.8346 26.1484 24.4766C26.2148 25.1185 26.248 25.4727 26.248 25.5391C26.248 25.694 26.1706 25.9154 26.0156 26.2031C25.8828 26.4909 25.7279 26.7565 25.5508 27C25.3737 27.2435 25.1855 27.4316 24.9863 27.5645C24.8092 27.7194 24.6875 27.7305 24.6211 27.5977C24.5104 27.3984 24.278 26.8008 23.9238 25.8047C23.5697 24.8086 23.1712 23.4473 22.7285 21.7207C22.2858 21.6764 21.821 21.6322 21.334 21.5879C20.8691 21.5436 20.3932 21.4993 19.9062 21.4551C19.4193 21.4108 18.9323 21.3555 18.4453 21.2891C17.9805 21.2005 17.5267 21.123 17.084 21.0566C16.8626 22.0306 16.6413 22.9492 16.4199 23.8125C16.2207 24.6758 16.0215 25.4284 15.8223 26.0703C15.6452 26.7122 15.4902 27.2214 15.3574 27.5977C15.2246 27.974 15.125 28.1621 15.0586 28.1621C14.8815 28.1621 14.7044 28.0514 14.5273 27.8301C14.3503 27.6087 14.1842 27.3431 14.0293 27.0332C13.8965 26.7233 13.7858 26.4023 13.6973 26.0703C13.6087 25.7383 13.5645 25.4616 13.5645 25.2402C13.6087 24.7311 13.6641 24.1999 13.7305 23.6465C13.819 23.0931 13.8854 22.584 13.9297 22.1191C13.9961 21.5658 14.0625 21.0234 14.1289 20.4922H13.9961C13.9076 20.4479 13.7858 20.3483 13.6309 20.1934C13.4759 20.0384 13.321 19.8835 13.166 19.7285C13.0111 19.5514 12.8783 19.3854 12.7676 19.2305C12.6569 19.0534 12.6016 18.9206 12.6016 18.832C12.6016 18.7878 12.7565 18.7435 13.0664 18.6992C13.3984 18.6549 13.8301 18.6107 14.3613 18.5664C14.5384 17.2383 14.7266 15.8548 14.9258 14.416C15.125 12.9772 15.3242 11.627 15.5234 10.3652C15.7227 9.10352 15.9108 8.00781 16.0879 7.07812C16.2871 6.1263 16.4531 5.47331 16.5859 5.11914C16.8073 4.52148 17.1947 3.99023 17.748 3.52539C18.3014 3.03841 18.877 2.63997 19.4746 2.33008C20.0944 1.99805 20.681 1.74349 21.2344 1.56641C21.7878 1.38932 22.1973 1.30078 22.4629 1.30078C22.5736 1.30078 22.6953 1.55534 22.8281 2.06445C22.9831 2.55143 23.138 3.21549 23.293 4.05664C23.4701 4.89779 23.6471 5.88281 23.8242 7.01172C24.0234 8.11849 24.2116 9.29167 24.3887 10.5312C24.5658 11.7708 24.7318 13.0436 24.8867 14.3496C25.0638 15.6335 25.2298 16.862 25.3848 18.0352C26.4915 18.0352 27.1003 18.0684 27.2109 18.1348ZM17.7148 18.334C18.4232 18.2897 19.1315 18.2565 19.8398 18.2344C20.5482 18.2122 21.2454 18.179 21.9316 18.1348C21.7546 17.2715 21.5553 16.3086 21.334 15.2461C21.1569 14.3385 20.9466 13.276 20.7031 12.0586C20.4596 10.8411 20.2161 9.50195 19.9727 8.04102C19.707 9.34701 19.4414 10.6198 19.1758 11.8594C18.9102 13.0768 18.6667 14.1725 18.4453 15.1465C18.2018 16.2754 17.9583 17.3379 17.7148 18.334ZM38.4102 3.9375C38.4727 4.04167 38.5039 4.28125 38.5039 4.65625C38.5247 5.03125 38.5143 5.4375 38.4727 5.875C38.431 6.3125 38.3685 6.73958 38.2852 7.15625C38.2227 7.55208 38.1497 7.8125 38.0664 7.9375C38.0039 8.04167 37.6185 8.08333 36.9102 8.0625C36.2227 8.02083 35.2331 7.91667 33.9414 7.75C33.9414 8.5625 33.931 9.60417 33.9102 10.875C33.8893 12.1458 33.8477 13.5104 33.7852 14.9688C33.7435 16.4062 33.6914 17.8542 33.6289 19.3125C33.5872 20.7708 33.5352 22.0938 33.4727 23.2812C33.4102 24.4688 33.3477 25.4375 33.2852 26.1875C33.2227 26.9375 33.1706 27.3333 33.1289 27.375C33.0456 27.4375 32.8997 27.4062 32.6914 27.2812C32.5039 27.1771 32.306 27.0208 32.0977 26.8125C31.8893 26.6042 31.6914 26.3958 31.5039 26.1875C31.3372 25.9583 31.2227 25.7604 31.1602 25.5938C31.1393 25.5104 31.0977 25.1042 31.0352 24.375C30.9935 23.6458 30.9414 22.7292 30.8789 21.625C30.8164 20.5208 30.7435 19.2917 30.6602 17.9375C30.5768 16.5833 30.4935 15.2396 30.4102 13.9062C30.3268 12.5729 30.2331 11.3229 30.1289 10.1562C30.0456 8.98958 29.9727 8.02083 29.9102 7.25C28.4935 7.10417 27.4727 6.95833 26.8477 6.8125C26.2227 6.66667 25.8685 6.55208 25.7852 6.46875C25.7018 6.38542 25.6185 6.22917 25.5352 6C25.431 5.75 25.3477 5.5 25.2852 5.25C25.2227 5 25.1914 4.77083 25.1914 4.5625C25.1706 4.33333 25.1914 4.1875 25.2539 4.125C25.2956 4.08333 25.6497 4.04167 26.3164 4C26.9622 3.95833 27.7643 3.91667 28.7227 3.875C29.681 3.83333 30.7122 3.80208 31.8164 3.78125C32.9414 3.76042 33.9831 3.75 34.9414 3.75C35.8997 3.75 36.7018 3.77083 37.3477 3.8125C38.0143 3.83333 38.3685 3.875 38.4102 3.9375ZM48.3848 9.27539C48.4043 9.56836 48.3652 10.0078 48.2676 10.5938C48.1895 11.1797 48.0527 11.7656 47.8574 12.3516C47.6621 12.9375 47.4082 13.4551 47.0957 13.9043C46.8027 14.334 46.4609 14.5488 46.0703 14.5488C45.875 14.5488 45.709 14.4316 45.5723 14.1973C45.4355 13.9629 45.3184 13.6602 45.2207 13.2891C45.123 12.918 45.0449 12.5078 44.9863 12.0586C44.9277 11.5898 44.8691 11.1406 44.8105 10.7109C44.7715 10.2812 44.7324 9.89062 44.6934 9.53906C44.6738 9.16797 44.6543 8.89453 44.6348 8.71875C44.5566 8.60156 44.4102 8.48438 44.1953 8.36719C44 8.23047 43.8242 8.16211 43.668 8.16211C43.4922 8.16211 43.2773 8.32812 43.0234 8.66016C42.7891 8.99219 42.5645 9.38281 42.3496 9.83203C42.1348 10.2812 41.959 10.7305 41.8223 11.1797C41.6855 11.6094 41.627 11.9414 41.6465 12.1758C41.6465 12.332 41.793 12.6055 42.0859 12.9961C42.3984 13.3867 42.7793 13.8457 43.2285 14.373C43.6777 14.9004 44.166 15.4766 44.6934 16.1016C45.2207 16.707 45.709 17.3125 46.1582 17.918C46.6074 18.5234 46.9883 19.0996 47.3008 19.6465C47.6133 20.1934 47.7793 20.6621 47.7988 21.0527C47.8379 21.5215 47.7305 22.127 47.4766 22.8691C47.2422 23.5918 46.9395 24.2949 46.5684 24.9785C46.1973 25.6621 45.7969 26.2578 45.3672 26.7656C44.957 27.2539 44.5859 27.5078 44.2539 27.5273C44.0391 27.5469 43.7559 27.4492 43.4043 27.2344C43.0527 27.0391 42.6719 26.7754 42.2617 26.4434C41.8516 26.1113 41.4316 25.75 41.002 25.3594C40.5918 24.9492 40.2012 24.5488 39.8301 24.1582C39.4785 23.7676 39.1758 23.416 38.9219 23.1035C38.6875 22.7715 38.5508 22.5273 38.5117 22.3711C38.4336 22.1367 38.3848 21.8242 38.3652 21.4336C38.3652 21.0234 38.3848 20.6328 38.4238 20.2617C38.4824 19.8711 38.5508 19.5391 38.6289 19.2656C38.7266 18.9727 38.8438 18.8262 38.9805 18.8262C39.0781 18.8262 39.2344 18.9531 39.4492 19.207C39.6836 19.4609 39.9473 19.7832 40.2402 20.1738C40.5332 20.5645 40.8457 20.9941 41.1777 21.4629C41.5293 21.9121 41.8613 22.332 42.1738 22.7227C42.4863 23.1133 42.7695 23.4453 43.0234 23.7188C43.2773 23.9727 43.4824 24.0898 43.6387 24.0703C43.7559 24.0703 43.8828 23.9824 44.0195 23.8066C44.1562 23.6113 44.2832 23.3867 44.4004 23.1328C44.5176 22.8594 44.6152 22.5859 44.6934 22.3125C44.7715 22.0391 44.8105 21.8242 44.8105 21.668C44.791 21.4336 44.5957 21.1016 44.2246 20.6719C43.873 20.2227 43.4238 19.7246 42.877 19.1777C42.3496 18.6113 41.7734 18.0254 41.1484 17.4199C40.543 16.8145 39.9668 16.2383 39.4199 15.6914C38.8926 15.125 38.4434 14.6172 38.0723 14.168C37.7207 13.7188 37.5352 13.377 37.5156 13.1426C37.4961 12.9082 37.5645 12.5469 37.7207 12.0586C37.877 11.5508 38.082 10.9844 38.3359 10.3594C38.6094 9.73438 38.9121 9.09961 39.2441 8.45508C39.5762 7.81055 39.918 7.21484 40.2695 6.66797C40.6211 6.12109 40.9629 5.68164 41.2949 5.34961C41.627 4.99805 41.9199 4.82227 42.1738 4.82227C42.5059 4.82227 42.8867 4.90039 43.3164 5.05664C43.7461 5.19336 44.1855 5.38867 44.6348 5.64258C45.1035 5.87695 45.5527 6.15039 45.9824 6.46289C46.4316 6.77539 46.832 7.09766 47.1836 7.42969C47.5352 7.74219 47.8184 8.06445 48.0332 8.39648C48.248 8.70898 48.3652 9.00195 48.3848 9.27539Z" fill="#FF4500"/>
<path d="M57.8672 11.332C57.7943 11.4232 57.3477 11.4323 56.5273 11.3594C55.707 11.2865 54.4128 11.168 52.6445 11.0039C52.6445 11.6055 52.6445 12.3438 52.6445 13.2188C52.6628 14.0938 52.6628 15.0326 52.6445 16.0352C54.0117 16.1628 55.0781 16.2812 55.8438 16.3906C56.6094 16.5 57.0104 16.5729 57.0469 16.6094C57.1198 16.6823 57.1471 16.8372 57.1289 17.0742C57.1107 17.293 57.0651 17.5391 56.9922 17.8125C56.9193 18.0859 56.8281 18.3503 56.7188 18.6055C56.6094 18.8424 56.5 18.9974 56.3906 19.0703C56.2995 19.1068 55.9349 19.1615 55.2969 19.2344C54.6771 19.2891 53.793 19.3438 52.6445 19.3984C52.6445 20.1823 52.6354 20.957 52.6172 21.7227C52.6172 22.4883 52.6081 23.1901 52.5898 23.8281C54.3581 23.8464 55.6432 23.8828 56.4453 23.9375C57.2656 23.974 57.7122 24.0286 57.7852 24.1016C57.8581 24.1927 57.8581 24.3659 57.7852 24.6211C57.7305 24.8763 57.6302 25.1497 57.4844 25.4414C57.3568 25.7148 57.2109 25.9883 57.0469 26.2617C56.901 26.5352 56.7826 26.7266 56.6914 26.8359C56.6549 26.8724 56.4362 26.8906 56.0352 26.8906C55.6341 26.8724 55.1875 26.8451 54.6953 26.8086C54.2031 26.7721 53.7292 26.7357 53.2734 26.6992C52.8177 26.6445 52.5169 26.599 52.3711 26.5625C52.0977 26.4714 51.806 26.3255 51.4961 26.125C51.1862 25.9062 50.9401 25.6328 50.7578 25.3047C50.7214 25.2135 50.6576 24.9128 50.5664 24.4023C50.4935 23.8737 50.4115 23.2083 50.3203 22.4062C50.2292 21.6042 50.138 20.7018 50.0469 19.6992C49.9557 18.6966 49.8646 17.6758 49.7734 16.6367C49.6823 15.5977 49.6003 14.5768 49.5273 13.5742C49.4544 12.5716 49.3906 11.6693 49.3359 10.8672C49.2995 10.0469 49.2812 9.3724 49.2812 8.84375C49.2812 8.29688 49.3086 7.96875 49.3633 7.85938C49.418 7.71354 49.6732 7.60417 50.1289 7.53125C50.5846 7.45833 51.1315 7.41276 51.7695 7.39453C52.4076 7.35807 53.0911 7.34896 53.8203 7.36719C54.5677 7.38542 55.2604 7.42188 55.8984 7.47656C56.5365 7.51302 57.0742 7.56771 57.5117 7.64062C57.9492 7.69531 58.1953 7.75 58.25 7.80469C58.3229 7.89583 58.3594 8.10547 58.3594 8.43359C58.3776 8.76172 58.3594 9.1263 58.3047 9.52734C58.2682 9.91016 58.2044 10.2839 58.1133 10.6484C58.0404 10.9948 57.9583 11.2227 57.8672 11.332ZM71.4336 19.1777C71.4727 19.2363 71.4629 19.4316 71.4043 19.7637C71.3652 20.0957 71.2969 20.457 71.1992 20.8477C71.1211 21.2383 71.0332 21.6094 70.9355 21.9609C70.8574 22.293 70.7891 22.4883 70.7305 22.5469H70.4375C70.3789 22.5469 70.3203 22.5371 70.2617 22.5176C70.3594 23.4551 70.4375 24.207 70.4961 24.7734C70.5547 25.3398 70.584 25.6523 70.584 25.7109C70.584 25.8477 70.5156 26.043 70.3789 26.2969C70.2617 26.5508 70.125 26.7852 69.9688 27C69.8125 27.2148 69.6465 27.3809 69.4707 27.498C69.3145 27.6348 69.207 27.6445 69.1484 27.5273C69.0508 27.3516 68.8457 26.8242 68.5332 25.9453C68.2207 25.0664 67.8691 23.8652 67.4785 22.3418C67.0879 22.3027 66.6777 22.2637 66.248 22.2246C65.8379 22.1855 65.418 22.1465 64.9883 22.1074C64.5586 22.0684 64.1289 22.0195 63.6992 21.9609C63.2891 21.8828 62.8887 21.8145 62.498 21.7559C62.3027 22.6152 62.1074 23.4258 61.9121 24.1875C61.7363 24.9492 61.5605 25.6133 61.3848 26.1797C61.2285 26.7461 61.0918 27.1953 60.9746 27.5273C60.8574 27.8594 60.7695 28.0254 60.7109 28.0254C60.5547 28.0254 60.3984 27.9277 60.2422 27.7324C60.0859 27.5371 59.9395 27.3027 59.8027 27.0293C59.6855 26.7559 59.5879 26.4727 59.5098 26.1797C59.4316 25.8867 59.3926 25.6426 59.3926 25.4473C59.4316 24.998 59.4805 24.5293 59.5391 24.041C59.6172 23.5527 59.6758 23.1035 59.7148 22.6934C59.7734 22.2051 59.832 21.7266 59.8906 21.2578H59.7734C59.6953 21.2188 59.5879 21.1309 59.4512 20.9941C59.3145 20.8574 59.1777 20.7207 59.041 20.584C58.9043 20.4277 58.7871 20.2812 58.6895 20.1445C58.5918 19.9883 58.543 19.8711 58.543 19.793C58.543 19.7539 58.6797 19.7148 58.9531 19.6758C59.2461 19.6367 59.627 19.5977 60.0957 19.5586C60.252 18.3867 60.418 17.166 60.5938 15.8965C60.7695 14.627 60.9453 13.4355 61.1211 12.3223C61.2969 11.209 61.4629 10.2422 61.6191 9.42188C61.7949 8.58203 61.9414 8.00586 62.0586 7.69336C62.2539 7.16602 62.5957 6.69727 63.084 6.28711C63.5723 5.85742 64.0801 5.50586 64.6074 5.23242C65.1543 4.93945 65.6719 4.71484 66.1602 4.55859C66.6484 4.40234 67.0098 4.32422 67.2441 4.32422C67.3418 4.32422 67.4492 4.54883 67.5664 4.99805C67.7031 5.42773 67.8398 6.01367 67.9766 6.75586C68.1328 7.49805 68.2891 8.36719 68.4453 9.36328C68.6211 10.3398 68.7871 11.375 68.9434 12.4688C69.0996 13.5625 69.2461 14.6855 69.3828 15.8379C69.5391 16.9707 69.6855 18.0547 69.8223 19.0898C70.7988 19.0898 71.3359 19.1191 71.4336 19.1777ZM63.0547 19.3535C63.6797 19.3145 64.3047 19.2852 64.9297 19.2656C65.5547 19.2461 66.1699 19.2168 66.7754 19.1777C66.6191 18.416 66.4434 17.5664 66.248 16.6289C66.0918 15.8281 65.9062 14.8906 65.6914 13.8164C65.4766 12.7422 65.2617 11.5605 65.0469 10.2715C64.8125 11.4238 64.5781 12.5469 64.3438 13.6406C64.1094 14.7148 63.8945 15.6816 63.6992 16.541C63.4844 17.5371 63.2695 18.4746 63.0547 19.3535ZM83.5156 8.09375C83.5365 8.40625 83.4948 8.875 83.3906 9.5C83.3073 10.125 83.1615 10.75 82.9531 11.375C82.7448 12 82.474 12.5521 82.1406 13.0312C81.8281 13.4896 81.4635 13.7188 81.0469 13.7188C80.8385 13.7188 80.6615 13.5938 80.5156 13.3438C80.3698 13.0938 80.2448 12.7708 80.1406 12.375C80.0365 11.9792 79.9531 11.5417 79.8906 11.0625C79.8281 10.5625 79.7656 10.0833 79.7031 9.625C79.6615 9.16667 79.6198 8.75 79.5781 8.375C79.5573 7.97917 79.5365 7.6875 79.5156 7.5C79.4323 7.375 79.276 7.25 79.0469 7.125C78.8385 6.97917 78.651 6.90625 78.4844 6.90625C78.2969 6.90625 78.0677 7.08333 77.7969 7.4375C77.5469 7.79167 77.3073 8.20833 77.0781 8.6875C76.849 9.16667 76.6615 9.64583 76.5156 10.125C76.3698 10.5833 76.3073 10.9375 76.3281 11.1875C76.3281 11.3542 76.4844 11.6458 76.7969 12.0625C77.1302 12.4792 77.5365 12.9688 78.0156 13.5312C78.4948 14.0938 79.0156 14.7083 79.5781 15.375C80.1406 16.0208 80.6615 16.6667 81.1406 17.3125C81.6198 17.9583 82.026 18.5729 82.3594 19.1562C82.6927 19.7396 82.8698 20.2396 82.8906 20.6562C82.9323 21.1562 82.8177 21.8021 82.5469 22.5938C82.2969 23.3646 81.974 24.1146 81.5781 24.8438C81.1823 25.5729 80.7552 26.2083 80.2969 26.75C79.8594 27.2708 79.4635 27.5417 79.1094 27.5625C78.8802 27.5833 78.5781 27.4792 78.2031 27.25C77.8281 27.0417 77.4219 26.7604 76.9844 26.4062C76.5469 26.0521 76.099 25.6667 75.6406 25.25C75.2031 24.8125 74.7865 24.3854 74.3906 23.9688C74.0156 23.5521 73.6927 23.1771 73.4219 22.8438C73.1719 22.4896 73.026 22.2292 72.9844 22.0625C72.901 21.8125 72.849 21.4792 72.8281 21.0625C72.8281 20.625 72.849 20.2083 72.8906 19.8125C72.9531 19.3958 73.026 19.0417 73.1094 18.75C73.2135 18.4375 73.3385 18.2812 73.4844 18.2812C73.5885 18.2812 73.7552 18.4167 73.9844 18.6875C74.2344 18.9583 74.5156 19.3021 74.8281 19.7188C75.1406 20.1354 75.474 20.5938 75.8281 21.0938C76.2031 21.5729 76.5573 22.0208 76.8906 22.4375C77.224 22.8542 77.526 23.2083 77.7969 23.5C78.0677 23.7708 78.2865 23.8958 78.4531 23.875C78.5781 23.875 78.7135 23.7812 78.8594 23.5938C79.0052 23.3854 79.1406 23.1458 79.2656 22.875C79.3906 22.5833 79.4948 22.2917 79.5781 22C79.6615 21.7083 79.7031 21.4792 79.7031 21.3125C79.6823 21.0625 79.474 20.7083 79.0781 20.25C78.7031 19.7708 78.224 19.2396 77.6406 18.6562C77.0781 18.0521 76.4635 17.4271 75.7969 16.7812C75.151 16.1354 74.5365 15.5208 73.9531 14.9375C73.3906 14.3333 72.9115 13.7917 72.5156 13.3125C72.1406 12.8333 71.9427 12.4688 71.9219 12.2188C71.901 11.9688 71.974 11.5833 72.1406 11.0625C72.3073 10.5208 72.526 9.91667 72.7969 9.25C73.0885 8.58333 73.4115 7.90625 73.7656 7.21875C74.1198 6.53125 74.4844 5.89583 74.8594 5.3125C75.2344 4.72917 75.599 4.26042 75.9531 3.90625C76.3073 3.53125 76.6198 3.34375 76.8906 3.34375C77.2448 3.34375 77.651 3.42708 78.1094 3.59375C78.5677 3.73958 79.0365 3.94792 79.5156 4.21875C80.0156 4.46875 80.4948 4.76042 80.9531 5.09375C81.4323 5.42708 81.8594 5.77083 82.2344 6.125C82.6094 6.45833 82.9115 6.80208 83.1406 7.15625C83.3698 7.48958 83.4948 7.80208 83.5156 8.09375ZM96.0938 1.75781C96.0938 1.80469 96.0117 2.08594 95.8477 2.60156C95.707 3.09375 95.5078 3.73828 95.25 4.53516C94.9922 5.30859 94.6875 6.1875 94.3359 7.17188C94.0078 8.15625 93.6562 9.17578 93.2812 10.2305C92.9062 11.2617 92.5195 12.2812 92.1211 13.2891C91.7461 14.2969 91.3945 15.1992 91.0664 15.9961C91.0195 17.6133 90.9609 19.125 90.8906 20.5312C90.8203 21.9375 90.75 23.168 90.6797 24.2227C90.6094 25.2773 90.5391 26.1211 90.4688 26.7539C90.3984 27.3633 90.3398 27.6797 90.293 27.7031C90.1758 27.7969 89.9883 27.7617 89.7305 27.5977C89.4727 27.457 89.2031 27.2578 88.9219 27C88.6641 26.7422 88.418 26.4609 88.1836 26.1562C87.9727 25.8516 87.832 25.5938 87.7617 25.3828C87.7383 25.2891 87.7031 24.9961 87.6562 24.5039C87.6094 23.9883 87.5508 23.3086 87.4805 22.4648C87.4102 21.5977 87.3281 20.5898 87.2344 19.4414C87.1641 18.293 87.0938 17.0273 87.0234 15.6445C86.5781 14.6602 86.1094 13.5 85.6172 12.1641C85.1953 11.0156 84.7148 9.62109 84.1758 7.98047C83.6602 6.33984 83.1328 4.45312 82.5938 2.32031C82.5938 2.10938 82.7227 1.89844 82.9805 1.6875C83.2383 1.45313 83.5547 1.25391 83.9297 1.08984C84.3047 0.925781 84.7031 0.796875 85.125 0.703125C85.5469 0.609375 85.9219 0.597656 86.25 0.667969C86.3438 0.808594 86.5195 1.34766 86.7773 2.28516C86.8711 2.68359 86.9883 3.1875 87.1289 3.79688C87.293 4.38281 87.4688 5.12109 87.6562 6.01172C87.8438 6.87891 88.0547 7.89844 88.2891 9.07031C88.5469 10.2422 88.8398 11.6016 89.168 13.1484C89.5195 11.6484 89.8359 10.3242 90.1172 9.17578C90.3984 8.02734 90.6445 7.03125 90.8555 6.1875C91.0898 5.32031 91.2891 4.59375 91.4531 4.00781C91.6406 3.39844 91.793 2.89453 91.9102 2.49609C92.1914 1.55859 92.4141 1.00781 92.5781 0.84375C92.7422 0.75 93.0117 0.714844 93.3867 0.738281C93.7852 0.738281 94.1719 0.796875 94.5469 0.914062C94.9453 1.00781 95.2969 1.13672 95.6016 1.30078C95.9062 1.44141 96.0703 1.59375 96.0938 1.75781Z" fill="black"/>
</svg>
